<svg version="1.1" xmlns="http://www.w3.org/2000/svg" viewBox="0 0 622.8884865897043 686.4285714285718" width="622.8884865897043" height="686.4285714285718">
  <!-- svg-source:excalidraw -->
  
  <defs>
    <style class="style-fonts">
      @font-face {
        font-family: "Virgil";
        src: url("https://excalidraw.com/Virgil.woff2");
      }
      @font-face {
        font-family: "Cascadia";
        src: url("https://excalidraw.com/Cascadia.woff2");
      }
      @font-face {
        font-family: "Assistant";
        src: url("https://excalidraw.com/Assistant-Regular.woff2");
      }
    </style>
    
  </defs>
  <rect x="0" y="0" width="622.8884865897043" height="686.4285714285718" fill="#ffffff"></rect><g stroke-linecap="round" transform="translate(382.8571428571429 576.4285714285717) rotate(0 51.428571428571445 50)"><path d="M50.93 1.66 C58.98 0.66, 68.91 1.5, 76.61 5.19 C84.32 8.87, 92.58 16.28, 97.17 23.77 C101.77 31.26, 104.45 41.79, 104.2 50.13 C103.95 58.47, 99.99 66.47, 95.67 73.83 C91.35 81.18, 85.77 89.95, 78.28 94.25 C70.79 98.55, 59.74 100.09, 50.73 99.62 C41.71 99.16, 31.26 95.69, 24.19 91.47 C17.12 87.25, 12.49 81.16, 8.31 74.31 C4.13 67.46, -0.42 58.85, -0.88 50.37 C-1.34 41.9, 0.95 30.46, 5.54 23.45 C10.13 16.44, 13.4 10.6, 26.67 8.31 C39.94 6.02, 72.75 4.29, 85.15 9.69 C97.55 15.1, 101.7 39.5, 101.08 40.74 M59.89 0.15 C67.8 0.31, 76.19 2.93, 82.32 8.29 C88.45 13.65, 93.33 24.22, 96.68 32.32 C100.03 40.42, 103.06 48.9, 102.42 56.89 C101.79 64.88, 97.9 73.43, 92.88 80.27 C87.86 87.11, 80.3 94.49, 72.31 97.95 C64.31 101.41, 53.95 102.51, 44.92 101.06 C35.9 99.6, 25.22 94.81, 18.17 89.21 C11.11 83.61, 5.13 74.78, 2.58 67.46 C0.02 60.14, 1.2 53.23, 2.83 45.31 C4.45 37.39, 7.84 26.81, 12.33 19.94 C16.83 13.07, 22.56 6.9, 29.79 4.1 C37.02 1.29, 51.35 3.04, 55.71 3.09 C60.08 3.14, 55.33 3.99, 56 4.39" stroke="#000000" stroke-width="1" fill="none"></path></g><g stroke-linecap="round" transform="translate(317.1428571428571 427.857142857143) rotate(0 51.428571428571445 50)"><path d="M81.02 9.11 C88.05 13.24, 95.4 21.23, 99.01 28.81 C102.62 36.4, 103.92 46.2, 102.68 54.61 C101.45 63.02, 96.88 72.44, 91.59 79.28 C86.31 86.12, 78.53 92.51, 70.97 95.63 C63.42 98.75, 54.29 99.06, 46.26 98.02 C38.22 96.97, 29.97 94.16, 22.76 89.36 C15.55 84.56, 6.44 76.95, 2.98 69.2 C-0.47 61.45, 0.93 51.09, 2.02 42.85 C3.12 34.62, 4.77 26, 9.55 19.79 C14.34 13.57, 22.65 8.87, 30.74 5.57 C38.83 2.27, 46.52 -4.61, 58.09 -0.03 C69.66 4.56, 93.46 22.46, 100.17 33.09 C106.89 43.73, 99.46 63.5, 98.38 63.78 M82.86 9.09 C88.74 13.11, 93.79 23.66, 96.61 32.12 C99.43 40.58, 100.81 51.84, 99.79 59.87 C98.78 67.89, 95.23 74.56, 90.5 80.28 C85.76 86, 79.36 90.78, 71.39 94.19 C63.42 97.6, 51.04 101.22, 42.69 100.75 C34.35 100.28, 27.98 96.56, 21.33 91.38 C14.67 86.2, 6.65 77.66, 2.75 69.68 C-1.14 61.71, -3.93 51.92, -2.06 43.52 C-0.2 35.11, 8.19 25.72, 13.93 19.25 C19.68 12.78, 25.04 7.37, 32.41 4.7 C39.77 2.03, 49.99 2.11, 58.13 3.23 C66.27 4.35, 77.51 9.87, 81.25 11.41 C84.99 12.96, 80.45 11.76, 80.55 12.5" stroke="#000000" stroke-width="1" fill="none"></path></g><g stroke-linecap="round" transform="translate(232.85714285714278 242.14285714285734) rotate(0 51.428571428571445 50)"><path d="M33.61 2.01 C41.38 -1.08, 53.79 0.8, 62.73 2.49 C71.67 4.19, 80.82 7.19, 87.26 12.18 C93.7 17.18, 98.8 24.22, 101.37 32.48 C103.93 40.75, 104.47 53.39, 102.63 61.8 C100.78 70.2, 95.96 77.1, 90.28 82.9 C84.59 88.71, 76.42 94.23, 68.5 96.63 C60.59 99.03, 51.29 99.15, 42.78 97.32 C34.27 95.49, 24.08 90.78, 17.46 85.67 C10.83 80.56, 5.67 74.18, 3.03 66.64 C0.4 59.1, 0.28 49.09, 1.64 40.45 C3 31.81, 1.87 21.46, 11.18 14.82 C20.5 8.19, 46.5 2.14, 57.52 0.65 C68.53 -0.84, 77.44 5.23, 77.26 5.91 M93.95 22.78 C99.37 28.89, 101.14 36.14, 102.2 43.82 C103.26 51.5, 104.17 61.38, 100.32 68.86 C96.48 76.34, 86.2 83.95, 79.11 88.68 C72.01 93.41, 65.71 95.7, 57.75 97.24 C49.79 98.78, 39.17 100.46, 31.36 97.9 C23.55 95.35, 16.13 88.76, 10.91 81.92 C5.69 75.07, 0.98 65.63, 0.05 56.85 C-0.88 48.07, 1.97 37.45, 5.35 29.24 C8.73 21.03, 13.98 12.08, 20.34 7.61 C26.71 3.15, 35.2 2.8, 43.55 2.44 C51.89 2.08, 61.86 2.4, 70.39 5.47 C78.91 8.53, 91.26 17.99, 94.71 20.85 C98.15 23.72, 92.18 22.3, 91.07 22.63" stroke="#000000" stroke-width="1" fill="none"></path></g><g stroke-linecap="round" transform="translate(141.42857142857144 416.428571428572) rotate(0 51.428571428571445 50)"><path d="M78.07 6.14 C85.39 9.42, 91.6 16.38, 95.48 23.83 C99.36 31.28, 101.29 42.1, 101.34 50.83 C101.4 59.55, 99.82 69.15, 95.81 76.18 C91.8 83.21, 84.74 89.35, 77.31 93 C69.88 96.65, 60.15 98.08, 51.23 98.08 C42.31 98.09, 31.44 96.95, 23.79 93.03 C16.14 89.11, 9.35 81.75, 5.33 74.54 C1.32 67.32, -0.76 58.04, -0.3 49.72 C0.15 41.41, 3.4 31.88, 8.04 24.63 C12.69 17.39, 20.04 10.6, 27.56 6.25 C35.07 1.89, 42.38 -3.22, 53.13 -1.5 C63.88 0.23, 84.33 10.5, 92.07 16.58 C99.81 22.67, 100.68 34.29, 99.58 35.02 M86.18 16.73 C93 21.74, 102.14 27.36, 104.41 35.57 C106.69 43.77, 102.56 57.18, 99.85 65.95 C97.14 74.72, 93.78 82.54, 88.17 88.17 C82.57 93.79, 74.63 98.12, 66.22 99.68 C57.8 101.23, 46.85 99.64, 37.68 97.5 C28.5 95.36, 17.27 92.79, 11.15 86.86 C5.03 80.93, 2.62 70.3, 0.96 61.94 C-0.69 53.57, -1.56 45.01, 1.22 36.67 C4 28.34, 11.62 18.14, 17.64 11.91 C23.66 5.69, 28.86 1.22, 37.33 -0.66 C45.81 -2.53, 60.07 -1.86, 68.47 0.68 C76.87 3.21, 84.91 12.45, 87.74 14.55 C90.57 16.65, 86.33 12.93, 85.45 13.3" stroke="#000000" stroke-width="1" fill="none"></path></g><g stroke-linecap="round" transform="translate(502.8571428571429 419.2857142857147) rotate(0 51.428571428571445 50)"><path d="M59.97 -0.71 C68.19 0.09, 78.46 5.74, 84.88 11.76 C91.29 17.77, 95.62 27.51, 98.48 35.37 C101.33 43.23, 103.35 50.88, 101.99 58.9 C100.62 66.92, 96.08 77.26, 90.28 83.51 C84.48 89.76, 75.26 93.93, 67.17 96.39 C59.09 98.86, 49.96 99.64, 41.78 98.29 C33.59 96.93, 24.67 93.7, 18.06 88.27 C11.46 82.84, 5.19 73.54, 2.15 65.69 C-0.9 57.83, -1.94 49.3, -0.21 41.14 C1.51 32.98, 6.35 22.92, 12.49 16.73 C18.63 10.55, 27.37 6.48, 36.63 4.02 C45.89 1.57, 61.74 1.91, 68.07 1.98 C74.39 2.06, 74.56 3.34, 74.6 4.48 M67.29 0.29 C74.72 2.4, 81.63 11.11, 87.03 17.64 C92.44 24.18, 97.18 31.7, 99.72 39.51 C102.26 47.33, 104.41 56.94, 102.29 64.53 C100.17 72.12, 93.19 79.68, 87 85.05 C80.81 90.43, 73.2 94.44, 65.15 96.78 C57.11 99.11, 46.85 100.93, 38.74 99.09 C30.62 97.25, 22.49 92, 16.48 85.75 C10.46 79.49, 5.2 69.65, 2.65 61.56 C0.09 53.47, -1.3 45.07, 1.16 37.19 C3.62 29.31, 10.93 19.91, 17.41 14.29 C23.89 8.66, 31.49 5.26, 40.04 3.43 C48.59 1.6, 63.94 3.74, 68.7 3.31 C73.46 2.88, 69.24 0.02, 68.6 0.84" stroke="#000000" stroke-width="1" fill="none"></path></g><g stroke-linecap="round" transform="translate(232.8571428571429 10.71428571428578) rotate(0 51.428571428571445 50)"><path d="M54.45 -0.37 C62.95 -0.65, 73.8 3.28, 81.34 8.31 C88.89 13.33, 95.92 21.74, 99.72 29.76 C103.52 37.78, 105.55 48.36, 104.16 56.42 C102.76 64.48, 96.77 71.56, 91.35 78.1 C85.93 84.65, 79.28 91.93, 71.65 95.67 C64.01 99.42, 53.92 101.22, 45.54 100.58 C37.17 99.95, 28.53 96.92, 21.41 91.86 C14.28 86.81, 6.05 78.01, 2.77 70.26 C-0.5 62.51, 0.38 53.74, 1.75 45.38 C3.12 37.01, 6.19 26.89, 10.98 20.06 C15.78 13.23, 17.51 5.39, 30.53 4.39 C43.54 3.39, 77.48 7.28, 89.08 14.08 C100.67 20.88, 101.11 44.73, 100.08 45.2 M77.48 6.18 C84.47 9.51, 90.11 19.53, 94.53 26.73 C98.95 33.93, 104.03 40.66, 104 49.38 C103.98 58.1, 99.1 71.91, 94.38 79.05 C89.65 86.19, 83.29 88.65, 75.63 92.23 C67.97 95.81, 57.13 100.79, 48.42 100.56 C39.71 100.32, 30.28 95.05, 23.37 90.84 C16.46 86.62, 10.46 82.46, 6.97 75.26 C3.48 68.06, 2.24 55.87, 2.43 47.62 C2.61 39.37, 4.2 32.61, 8.1 25.75 C11.99 18.88, 17.96 10.48, 25.79 6.46 C33.61 2.43, 46.12 1.75, 55.03 1.58 C63.93 1.42, 75.29 4.36, 79.19 5.47 C83.09 6.58, 78.84 7.53, 78.42 8.24" stroke="#000000" stroke-width="1" fill="none"></path></g><g stroke-linecap="round" transform="translate(194.28571428571433 576.4285714285718) rotate(0 51.428571428571445 50)"><path d="M37.88 3.42 C45.31 0.81, 55.19 0.05, 63.3 2.06 C71.41 4.07, 80.17 9.75, 86.54 15.49 C92.91 21.24, 99.34 28.42, 101.52 36.53 C103.7 44.64, 101.55 56.09, 99.61 64.17 C97.66 72.25, 95.76 79.55, 89.85 85.02 C83.93 90.49, 72.52 94.71, 64.12 96.98 C55.71 99.26, 47.2 100.8, 39.39 98.66 C31.59 96.52, 23.63 90.11, 17.29 84.13 C10.94 78.14, 4.13 70.76, 1.32 62.75 C-1.48 54.74, -1.87 43.85, 0.45 36.07 C2.78 28.29, 5.76 22.17, 15.29 16.06 C24.82 9.96, 48.21 1.08, 57.63 -0.57 C67.06 -2.23, 72.09 5.1, 71.84 6.12 M76.9 5.69 C84.5 9.46, 92.69 18.4, 97.29 25.32 C101.88 32.25, 104.15 38.94, 104.47 47.24 C104.8 55.54, 103.87 67.95, 99.25 75.12 C94.62 82.29, 85 86.59, 76.73 90.24 C68.46 93.9, 58.14 96.54, 49.61 97.05 C41.08 97.55, 32.98 96.4, 25.55 93.26 C18.11 90.11, 9.24 85.22, 5.01 78.16 C0.79 71.11, -0.52 60.11, 0.2 50.94 C0.93 41.77, 5.23 30.02, 9.35 23.14 C13.48 16.26, 17.85 13.73, 24.95 9.67 C32.05 5.61, 43.47 -0.19, 51.94 -1.22 C60.41 -2.24, 72.02 1.69, 75.76 3.53 C79.49 5.37, 74.68 8.57, 74.33 9.83" stroke="#000000" stroke-width="1" fill="none"></path></g><g stroke-linecap="round" transform="translate(10 560.7142857142859) rotate(0 51.428571428571445 50)"><path d="M92.81 20.21 C97.9 26.47, 99.26 36.36, 100.34 44.13 C101.42 51.9, 102.22 59.33, 99.29 66.82 C96.36 74.31, 89.82 83.71, 82.76 89.08 C75.7 94.44, 65.54 97.63, 56.93 99.02 C48.32 100.41, 39.06 100.55, 31.1 97.42 C23.13 94.29, 14.53 86.77, 9.13 80.23 C3.74 73.69, -0.26 65.96, -1.25 58.17 C-2.25 50.37, -0.31 41.5, 3.14 33.45 C6.6 25.4, 12.63 15.31, 19.48 9.87 C26.32 4.42, 35.88 1.85, 44.23 0.76 C52.58 -0.32, 60.52 -2.28, 69.58 3.37 C78.64 9.01, 93.45 27.03, 98.59 34.64 C103.72 42.25, 101.11 49.13, 100.38 49.01 M10.73 13.19 C15.61 7.54, 26.69 6.93, 35.51 4.56 C44.33 2.19, 55.57 -2.18, 63.63 -1.03 C71.69 0.12, 77.41 5.4, 83.86 11.46 C90.31 17.51, 99.33 26.77, 102.33 35.3 C105.32 43.84, 104.28 54.39, 101.84 62.67 C99.4 70.95, 93.1 79.34, 87.7 84.98 C82.31 90.62, 77.63 93.87, 69.48 96.53 C61.34 99.19, 47.81 103.05, 38.85 100.94 C29.88 98.84, 22 89.72, 15.67 83.9 C9.34 78.09, 3.74 73.73, 0.85 66.07 C-2.04 58.41, -3.33 46.1, -1.68 37.95 C-0.03 29.79, 8.55 21, 10.74 17.15 C12.94 13.29, 10.36 14.27, 11.46 14.81" stroke="#000000" stroke-width="1" fill="none"></path></g><g stroke-linecap="round"><g transform="translate(278.57142857142856 113.5714285714289) rotate(0 0.7142857142857224 66.42857142857133)"><path d="M-2.72 -1.41 C-2.64 20.43, 1.95 108.19, 2.46 130.13 M1 4 C0.62 26.15, 1.28 110.96, 0.78 132.28" stroke="#000000" stroke-width="1" fill="none"></path></g></g><mask></mask><g stroke-linecap="round"><g transform="translate(301.42857142857144 336.4285714285717) rotate(0 21.428571428571445 50)"><path d="M0.29 -1.26 C7.28 14.89, 36.67 80.89, 44.13 97.81 M-2.99 4.23 C3.53 20.58, 34.68 83.71, 42.59 100.25" stroke="#000000" stroke-width="1" fill="none"></path></g></g><mask></mask><g stroke-linecap="round"><g transform="translate(252.8571428571429 335.0000000000002) rotate(0 -25 38.571428571428555)"><path d="M1.17 -0.65 C-6.81 12.19, -41.51 63.34, -49.86 76.71 M-1.65 -3.47 C-9.8 9.84, -43.94 66.96, -52.02 80.1" stroke="#000000" stroke-width="1" fill="none"></path></g></g><mask></mask><g stroke-linecap="round"><g transform="translate(348.57142857142856 520.714285714286) rotate(0 -35.71428571428572 36.42857142857139)"><path d="M-2.77 2.09 C-14.87 14.94, -60.24 62.12, -71.99 74.33 M0.92 0.76 C-11.66 13.03, -63.14 58.39, -74.54 70.12" stroke="#000000" stroke-width="1" fill="none"></path></g></g><mask></mask><g stroke-linecap="round"><g transform="translate(392.8571428571429 517.8571428571431) rotate(0 17.857142857142833 30.714285714285722)"><path d="M-1.08 1.06 C4.69 11.23, 28.18 51.25, 34.59 61.48 M3.53 -0.83 C8.82 9.79, 26.25 55.43, 31.75 65.13" stroke="#000000" stroke-width="1" fill="none"></path></g></g><mask></mask><g stroke-linecap="round"><g transform="translate(332.8571428571429 319.28571428571456) rotate(0 102.14285714285711 53.571428571428555)"><path d="M-1.12 0.99 C32.49 18.81, 169.54 86.93, 204.09 104.66 M3.46 -0.95 C36.47 17.34, 168.1 88.35, 201.75 106.94" stroke="#000000" stroke-width="1" fill="none"></path></g></g><mask></mask><g stroke-linecap="round" transform="translate(461.42857142857144 566.4285714285717) rotate(0 20 19.285714285714278)"><path d="M10.32 1.93 C13.71 -0.3, 19.91 -0.81, 24.27 0.02 C28.64 0.84, 34.01 3.46, 36.5 6.88 C38.99 10.3, 39.67 16.32, 39.22 20.56 C38.77 24.8, 36.41 29.41, 33.78 32.31 C31.15 35.21, 27.55 37.32, 23.43 37.97 C19.31 38.62, 12.89 38.46, 9.07 36.2 C5.26 33.94, 1.96 28.49, 0.55 24.42 C-0.86 20.35, -1.55 15.79, 0.6 11.79 C2.74 7.8, 10.69 2.45, 13.4 0.46 C16.11 -1.53, 16.87 -0.47, 16.87 -0.17 M26.85 0.07 C30.97 0.88, 34.72 4.65, 36.76 8.19 C38.81 11.73, 39.56 17.14, 39.12 21.32 C38.68 25.49, 37.38 30.57, 34.13 33.24 C30.88 35.92, 24.14 37.06, 19.59 37.36 C15.05 37.66, 9.98 37.42, 6.88 35.04 C3.78 32.66, 1.61 27.16, 1 23.1 C0.39 19.03, 1.17 14.49, 3.22 10.67 C5.27 6.85, 9.45 1.58, 13.32 0.17 C17.19 -1.23, 24.43 2.22, 26.45 2.27 C28.47 2.32, 25.47 0.21, 25.45 0.47" stroke="none" stroke-width="0" fill="#a5d8ff"></path><path d="M18.98 0.1 C23.2 -0.13, 29.23 2.21, 32.68 4.75 C36.14 7.29, 39.05 11.33, 39.72 15.35 C40.38 19.36, 38.85 25.32, 36.67 28.83 C34.5 32.35, 30.64 35.06, 26.68 36.45 C22.71 37.85, 16.81 38.38, 12.89 37.19 C8.97 36, 5.15 32.66, 3.18 29.29 C1.2 25.92, 0.54 21.15, 1.02 16.98 C1.5 12.8, 2.27 6.91, 6.08 4.25 C9.89 1.59, 20.31 1.33, 23.88 0.99 C27.45 0.66, 27.68 1.98, 27.49 2.26 M24.17 1.61 C28.55 1.85, 32.56 3.85, 35.45 6.77 C38.34 9.69, 41.31 15.02, 41.49 19.13 C41.67 23.24, 39.53 28.07, 36.54 31.42 C33.54 34.77, 28.02 38.2, 23.52 39.21 C19.01 40.23, 13.25 39.61, 9.51 37.5 C5.76 35.39, 2.54 30.41, 1.04 26.55 C-0.45 22.68, -0.66 18.12, 0.54 14.29 C1.74 10.46, 4.24 5.77, 8.23 3.56 C12.22 1.35, 22.09 1.39, 24.48 1.01 C26.86 0.63, 22.64 1.04, 22.53 1.27" stroke="#1e1e1e" stroke-width="1" fill="none"></path></g><g stroke-linecap="round" transform="translate(314.28571428571433 10) rotate(0 20 19.28571428571422)"><path d="M26.11 1.06 C30.26 1.89, 34.03 4.48, 36.33 7.92 C38.63 11.36, 40.37 17.66, 39.91 21.72 C39.45 25.78, 36.48 29.57, 33.6 32.29 C30.71 35.02, 26.88 37.52, 22.6 38.08 C18.33 38.63, 11.49 37.84, 7.95 35.61 C4.4 33.37, 2.17 28.86, 1.31 24.67 C0.45 20.48, 1.21 14.38, 2.76 10.45 C4.32 6.51, 6.63 2.41, 10.63 1.06 C14.62 -0.28, 23.6 2.13, 26.73 2.39 C29.85 2.65, 29.25 2.38, 29.37 2.64 M28.51 1.19 C32.4 2.14, 35.81 5.1, 37.67 8.72 C39.54 12.35, 40.54 18.62, 39.7 22.94 C38.85 27.26, 36.1 32.21, 32.61 34.64 C29.11 37.07, 23.16 37.54, 18.73 37.53 C14.3 37.53, 9.04 36.95, 6.02 34.6 C3.01 32.26, 0.98 27.86, 0.64 23.47 C0.29 19.09, 1.97 11.77, 3.94 8.27 C5.9 4.77, 8.56 3.86, 12.43 2.49 C16.29 1.13, 24.91 0.38, 27.13 0.09 C29.35 -0.21, 25.97 0.39, 25.76 0.74" stroke="none" stroke-width="0" fill="#a5d8ff"></path><path d="M16.33 0.69 C20.48 -0.05, 26.78 0.58, 30.63 2.68 C34.47 4.79, 38 9.54, 39.42 13.32 C40.83 17.09, 40.73 21.4, 39.14 25.34 C37.54 29.28, 33.74 34.91, 29.84 36.96 C25.95 39.01, 19.91 38.44, 15.76 37.64 C11.6 36.84, 7.41 35.44, 4.91 32.18 C2.41 28.92, 0.71 22.45, 0.77 18.09 C0.84 13.73, 2.16 9.09, 5.29 6.03 C8.43 2.96, 16.5 0.67, 19.58 -0.28 C22.66 -1.23, 23.58 0.12, 23.78 0.33 M28.9 2.09 C32.6 4.08, 35.93 9.26, 37.68 12.95 C39.42 16.63, 40.7 20.6, 39.35 24.2 C38 27.81, 33.11 32.06, 29.56 34.58 C26 37.09, 22.02 39.52, 18.04 39.3 C14.05 39.08, 8.53 36.48, 5.65 33.27 C2.77 30.06, 0.95 24.19, 0.77 20.03 C0.59 15.87, 1.83 11.7, 4.56 8.32 C7.29 4.93, 12.99 0.8, 17.15 -0.27 C21.31 -1.33, 27.36 1.56, 29.49 1.93 C31.62 2.3, 30.16 1.82, 29.92 1.95" stroke="#1e1e1e" stroke-width="1" fill="none"></path></g><g stroke-linecap="round" transform="translate(388.57142857142856 425.714285714286) rotate(0 20 19.285714285714278)"><path d="M11.13 2.41 C14.95 0.64, 21.62 -0.66, 25.99 0.47 C30.36 1.6, 35.16 5.6, 37.34 9.17 C39.53 12.74, 39.72 17.72, 39.12 21.88 C38.51 26.05, 36.68 31.23, 33.69 34.17 C30.71 37.11, 25.52 39.58, 21.19 39.53 C16.87 39.49, 11.05 36.54, 7.73 33.89 C4.4 31.24, 2.15 27.5, 1.24 23.62 C0.32 19.75, 0.07 14.52, 2.22 10.66 C4.37 6.8, 11.93 1.91, 14.13 0.44 C16.34 -1.04, 15.55 1.24, 15.45 1.81 M12.77 1.62 C16.37 0.11, 22.44 0.29, 26.35 1.59 C30.25 2.9, 33.69 6.1, 36.17 9.45 C38.65 12.8, 41.8 17.82, 41.2 21.72 C40.61 25.62, 35.94 29.99, 32.6 32.85 C29.26 35.72, 25.38 38.8, 21.17 38.93 C16.97 39.06, 11 36.42, 7.37 33.61 C3.73 30.81, 0.15 25.93, -0.67 22.11 C-1.49 18.28, 0.41 14.01, 2.45 10.68 C4.49 7.34, 10.09 3.54, 11.57 2.08 C13.04 0.62, 11.06 1.5, 11.28 1.93" stroke="none" stroke-width="0" fill="#a5d8ff"></path><path d="M28.41 1.45 C32.28 2.67, 35.12 5.87, 36.88 9.45 C38.65 13.03, 39.85 18.89, 39 22.96 C38.14 27.03, 35.15 31.35, 31.75 33.9 C28.36 36.44, 22.82 38.32, 18.61 38.2 C14.4 38.09, 9.51 35.84, 6.5 33.22 C3.48 30.59, 0.97 26.42, 0.53 22.46 C0.09 18.51, 1.64 13.03, 3.87 9.49 C6.09 5.95, 9.28 2.1, 13.87 1.22 C18.46 0.34, 27.82 3.31, 31.42 4.19 C35.02 5.07, 35.54 6.34, 35.47 6.5 M22.83 -1.14 C26.83 -1.19, 32.17 1.29, 35.22 4.46 C38.27 7.62, 41.22 13.46, 41.13 17.86 C41.04 22.26, 37.41 27.64, 34.67 30.88 C31.93 34.11, 28.82 36.34, 24.68 37.25 C20.54 38.15, 13.71 37.85, 9.84 36.32 C5.98 34.78, 3.21 31.83, 1.49 28.03 C-0.22 24.23, -1.83 17.46, -0.46 13.52 C0.92 9.58, 5.94 6.69, 9.74 4.41 C13.54 2.13, 20.48 0.73, 22.34 -0.17 C24.2 -1.07, 20.85 -1.12, 20.9 -0.96" stroke="#1e1e1e" stroke-width="1" fill="none"></path></g><g stroke-linecap="round"><g transform="translate(147.1428571428571 500.714285714286) rotate(0 -25 34.28571428571428)"><path d="M-2.66 0.25 C-11.48 12.04, -42.27 58.06, -50.34 69.81 M1.09 -2.09 C-8.37 8.95, -43.67 54.06, -52.76 65.47" stroke="#1e1e1e" stroke-width="1" fill="none"></path></g></g><mask></mask><g transform="translate(511.42857142857144 573.5714285714288) rotate(0 50.729957580566406 12.5)"><text x="0" y="0" font-family="Virgil, Segoe UI Emoji" font-size="20px" fill="#1e1e1e" text-anchor="start" style="white-space: pre;" direction="ltr" dominant-baseline="text-before-edge">Listener A</text></g><g transform="translate(362.1271852765766 392.5000000000002) rotate(0 51.43995666503906 12.5)"><text x="0" y="0" font-family="Virgil, Segoe UI Emoji" font-size="20px" fill="#1e1e1e" text-anchor="start" style="white-space: pre;" direction="ltr" dominant-baseline="text-before-edge">Listener B</text></g><g transform="translate(374.9843281337194 18.21428571428578) rotate(0 50.609954833984375 12.5)"><text x="0" y="0" font-family="Virgil, Segoe UI Emoji" font-size="20px" fill="#1e1e1e" text-anchor="start" style="white-space: pre;" direction="ltr" dominant-baseline="text-before-edge">Listener C</text></g></svg>